<svg width="383" height="160" viewBox="0 0 383 160" fill="none" xmlns="http://www.w3.org/2000/svg">
<path d="M76.2314 145.513C81.4642 141.48 85.5588 135.726 88.5104 128.25C91.4582 120.778 92.9314 111.997 92.9314 101.915C92.9314 91.838 91.4582 83.0606 88.5104 75.5807C85.5588 68.1083 81.4642 62.353 76.2314 58.321C70.9949 54.2928 65.0568 52.2769 58.4157 52.2769C51.6309 52.2769 45.5064 54.4597 40.0535 58.8266C34.5956 63.1972 30.3196 69.158 27.218 76.7176C24.1214 84.2785 22.5731 92.681 22.5731 101.915C22.5731 111.157 24.1214 119.556 27.218 127.116C30.3196 134.68 34.5956 140.642 40.0535 145.008C45.5064 149.379 51.6309 151.563 58.4157 151.563C65.0568 151.563 70.9949 149.542 76.2314 145.513ZM38.6152 152.256C31.4627 147.63 26.0361 141.279 22.3479 133.2V156.992H-0.00012207V0.58252H23.2347V69.7557C26.9229 61.8225 32.2707 55.6551 39.2806 51.2484C46.2831 46.8428 54.3611 44.6376 63.5072 44.6376C73.54 44.6376 82.5673 47.1018 90.6153 52.0179C98.6495 56.9414 104.994 63.7327 109.64 72.3955C114.29 81.0621 116.611 90.9016 116.611 101.915C116.611 112.791 114.29 122.592 109.64 131.324C104.994 140.066 98.6495 146.897 90.6153 151.817C82.5673 156.736 73.54 159.197 63.5072 159.197C54.0659 159.197 45.7715 156.882 38.6152 152.256Z" fill="#007C61"/>
<path d="M216.507 146.959C222.04 142.72 226.359 136.697 229.452 128.896C232.549 121.102 234.102 112.111 234.102 101.932C234.102 91.7592 232.549 82.7278 229.452 74.842C226.359 66.9574 222.04 60.8957 216.507 56.6558C210.979 52.4222 204.669 50.2954 197.593 50.2954C190.515 50.2954 184.202 52.4222 178.674 56.6558C173.141 60.8957 168.821 66.9175 165.734 74.7149C162.632 82.5161 161.084 91.5924 161.084 101.932C161.084 112.111 162.632 121.102 165.734 128.896C168.821 136.697 173.141 142.72 178.674 146.959C184.202 151.197 190.515 153.319 197.593 153.319C204.669 153.319 210.979 151.197 216.507 146.959ZM166.727 151.707C157.506 146.712 150.273 139.886 145.036 131.215C139.8 122.552 137.183 112.787 137.183 101.915C137.183 91.0469 139.8 81.2472 145.036 72.506C150.273 63.7722 157.506 56.9422 166.727 52.0175C175.943 47.1015 186.232 44.6372 197.593 44.6372C208.954 44.6372 219.238 47.1015 228.455 52.0175C237.677 56.9422 244.868 63.7722 250.034 72.506C255.197 81.2472 257.777 91.0469 257.777 101.915C257.777 112.787 255.197 122.552 250.034 131.215C244.868 139.886 237.677 146.712 228.455 151.707C219.238 156.697 208.954 159.197 197.593 159.197C186.232 159.197 175.943 156.697 166.727 151.707Z" fill="#007C61"/>
<path d="M382.999 156.991L334.986 96.6341L377.634 46.5659L364.335 46.8423L328.678 88.7059L295.375 46.8423H267.721L314.378 105.499L270.518 156.991L283.815 156.715L320.682 113.428L355.339 156.991H382.999Z" fill="#007C61"/>
</svg>
