<svg width="391" height="85" viewBox="0 0 391 85" fill="none" xmlns="http://www.w3.org/2000/svg">
<path d="M315 0H326L321.011 19.9126H319.876L315 0Z" fill="#007C61"/>
<path d="M83.814 44.3471C82.2105 40.8234 80.0138 38.1066 77.2261 36.2093C74.4298 34.3126 71.3002 33.3608 67.8234 33.3608C64.2843 33.3608 61.1339 34.3287 58.3745 36.2605C55.6152 38.1917 53.4352 40.8884 51.8375 44.3471C50.234 47.8046 49.3658 51.7366 49.2312 56.1431V56.8574H86.418C86.284 52.0449 85.4117 47.8713 83.814 44.3471ZM54.0319 80.9136C49.9463 78.6431 46.741 75.4903 44.4282 71.4548C42.1113 67.4215 40.9537 62.8949 40.9537 57.8759C40.9537 52.8581 42.1113 48.332 44.4282 44.2947C46.741 40.2609 49.9648 37.1082 54.085 34.8359C58.2036 32.5637 62.8188 31.4272 67.9274 31.4272C73.0343 31.4272 77.597 32.5637 81.6173 34.8359C85.6376 37.1082 88.784 40.2448 91.0662 44.2435C93.3467 48.2469 94.5222 52.7546 94.5938 57.7764V58.8921H49.3329C49.4698 63.5016 50.4211 67.5228 52.1939 70.9435C53.9626 74.37 56.3834 77.0138 59.4484 78.8766C62.511 80.7451 65.9854 81.6779 69.8694 81.6779C74.632 81.6779 78.7886 80.4547 82.3324 78.0162C85.8721 75.5731 88.2889 72.3169 89.5851 68.2491H91.7328C90.3696 73.2014 87.5432 77.1133 83.2514 79.998C78.9602 82.881 73.817 84.32 67.8234 84.32C62.7189 84.32 58.1181 83.1859 54.0319 80.9136V80.9136Z" fill="#007C61"/>
<path d="M111.736 79.9476C107.273 76.9633 104.632 72.6598 103.817 67.0278H105.859C106.678 71.98 109.079 75.7435 113.063 78.3206C117.049 80.8971 121.764 82.1853 127.213 82.1853C131.162 82.1853 134.773 81.3882 138.044 79.7934C141.31 78.2027 142.947 75.7763 142.947 72.5241C142.947 70.422 142.317 68.7238 141.056 67.4355C139.796 66.1496 138.162 65.1287 136.153 64.384C134.141 63.6375 131.333 62.8243 127.723 61.9438C126.225 61.6045 125.238 61.3675 124.762 61.2312C118.838 59.943 114.118 58.2447 110.613 56.1432C107.102 54.0412 105.35 50.7562 105.35 46.279C105.35 41.1922 107.394 37.4287 111.48 34.9862C115.567 32.5454 120.403 31.3262 125.989 31.3262C131.982 31.3262 137.006 32.799 141.056 35.7488C145.109 38.7008 147.442 42.8887 148.053 48.3137H146.011C145.194 43.4972 143.016 39.8372 139.472 37.3274C135.931 34.8217 131.607 33.5639 126.497 33.5639C122.479 33.5639 118.954 34.3955 115.924 36.0553C112.894 37.7168 111.377 40.2772 111.377 43.7364C111.377 45.7677 112.128 47.4309 113.626 48.7192C115.123 50.0097 116.91 50.992 118.989 51.6695C121.065 52.3452 124.387 53.2643 128.947 54.4162C133.039 55.2973 136.474 56.2284 139.268 57.2141C142.06 58.1981 144.442 59.6894 146.419 61.6879C148.398 63.6881 149.384 66.3503 149.384 69.6756C149.384 73.1325 148.275 75.9626 146.064 78.1682C143.85 80.3714 141.092 81.9662 137.787 82.9462C134.484 83.9302 131.197 84.4231 127.928 84.4231C121.595 84.4231 116.199 82.9318 111.736 79.9476V79.9476Z" fill="#007C61"/>
<path d="M166.853 67.6377V34.4822H155.207V32.4469H165.83C166.512 32.4469 166.853 32.1041 166.853 31.4283V20.2373H175.024L174.923 32.4469H196.582V34.4822H174.923V68.7552C174.923 77.506 178.975 81.8803 187.082 81.8803C190.077 81.8803 193.244 81.235 196.582 79.9468V81.8803C195.084 82.6268 193.122 83.2209 190.705 83.6591C188.29 84.0996 186.091 84.3205 184.117 84.3205C172.608 84.3205 166.853 78.7615 166.853 67.6377Z" fill="#007C61"/>
<path d="M245.876 44.3471C244.274 40.8234 242.078 38.1066 239.288 36.2093C236.494 34.3126 233.362 33.3608 229.886 33.3608C226.346 33.3608 223.198 34.3287 220.437 36.2605C217.68 38.1917 215.501 40.8884 213.9 44.3471C212.298 47.8046 211.428 51.7366 211.295 56.1431V56.8574H248.482C248.346 52.0449 247.478 47.8713 245.876 44.3471V44.3471ZM216.096 80.9136C212.008 78.6431 208.807 75.4903 206.492 71.4548C204.175 67.4215 203.018 62.8949 203.018 57.8759C203.018 52.8581 204.175 48.332 206.492 44.2947C208.807 40.2609 212.027 37.1082 216.147 34.8359C220.266 32.5637 224.885 31.4272 229.99 31.4272C235.096 31.4272 239.661 32.5637 243.681 34.8359C247.7 37.1082 250.848 40.2448 253.131 44.2435C255.409 48.2469 256.584 52.7546 256.656 57.7764V58.8921H211.397C211.532 63.5016 212.483 67.5228 214.258 70.9435C216.029 74.37 218.448 77.0138 221.51 78.8766C224.573 80.7451 228.048 81.6779 231.934 81.6779C236.698 81.6779 240.853 80.4547 244.397 78.0162C247.936 75.5731 250.353 72.3169 251.649 68.2491H253.795C252.432 73.2014 249.609 77.1133 245.314 79.998C241.022 82.881 235.881 84.32 229.886 84.32C224.781 84.32 220.182 83.1859 216.096 80.9136V80.9136Z" fill="#007C61"/>
<path d="M273.717 67.6377V34.4822H262.072V32.4469H272.694C273.377 32.4469 273.717 32.1041 273.717 31.4283V20.2373H281.889L281.787 32.4469H303.446V34.4822H281.787V68.7552C281.787 77.506 285.84 81.8803 293.947 81.8803C296.942 81.8803 300.111 81.235 303.446 79.9468V81.8803C301.949 82.6268 299.99 83.2209 297.57 83.6591C295.153 84.0996 292.96 84.3205 290.982 84.3205C279.472 84.3205 273.717 78.7615 273.717 67.6377Z" fill="#007C61"/>
<path d="M316.219 32.4478H324.39V83.3069H316.219V32.4478Z" fill="#007C61"/>
<path d="M352.229 80.913C348.175 78.6425 345.009 75.4897 342.726 71.4542C340.444 67.421 339.305 62.8949 339.305 57.8753C339.305 52.7868 340.444 48.2463 342.726 44.2435C345.009 40.2448 348.175 37.1099 352.229 34.8353C356.279 32.5654 360.86 31.4272 365.967 31.4272C372.573 31.4272 378.041 33.1554 382.366 36.617C386.689 40.0763 389.431 44.8543 390.589 50.9568H388.547C387.388 45.7365 385.02 41.6159 381.443 38.5989C377.87 35.5824 373.46 34.0727 368.219 34.0727C364.129 34.0727 360.518 35.0568 357.388 37.0225C354.254 38.9888 351.835 41.77 350.132 45.3633C348.428 48.9583 347.58 53.1295 347.58 57.8753C347.58 62.6229 348.428 66.7941 350.132 70.3851C351.835 73.9824 354.254 76.7619 357.388 78.7259C360.518 80.6939 364.129 81.6779 368.219 81.6779C373.46 81.6779 377.87 80.1522 381.443 77.0966C385.02 74.0491 387.388 69.9106 388.547 64.6881H390.589C389.431 70.7928 386.689 75.5933 382.366 79.083C378.041 82.5745 372.573 84.3194 365.967 84.3194C360.86 84.3194 356.279 83.1853 352.229 80.913Z" fill="#007C61"/>
<path d="M60.6729 32.6138C53.9585 32.857 43.3763 39.8302 39.8758 42.2428C36.3298 44.6876 30.8261 46.0265 27.4105 45.9028C23.5306 45.7625 20.0561 44.9734 16.9878 43.1072C13.9246 41.2421 11.506 38.6006 9.73501 35.1742C9.31334 34.3546 8.94424 33.4983 8.61441 32.6138H0.475586C0.903611 33.6645 1.40268 34.687 1.97338 35.6831C4.28622 39.7169 7.48745 42.8697 11.5754 45.1396C15.6609 47.4142 20.2601 48.5506 25.3686 48.5506C30.498 48.5506 35.6227 47.0674 39.9145 44.1861C44.1653 41.3295 50.0399 35.3507 62.8309 32.6138H60.6729V32.6138Z" fill="#007C61"/>
</svg>
