<svg width="485" height="485" viewBox="0 0 485 485" fill="none" xmlns="http://www.w3.org/2000/svg">
<path d="M485 242.5C485 376.43 376.43 485 242.5 485C108.572 485 0 376.43 0 242.5C0 108.572 108.572 0 242.5 0C376.43 0 485 108.572 485 242.5Z" fill="#007D69"/>
<path d="M275.46 223.206C272.824 217.389 269.22 212.907 264.638 209.778C260.048 206.649 254.901 205.081 249.192 205.081C243.381 205.081 238.204 206.674 233.672 209.86C229.138 213.052 225.561 217.497 222.93 223.206C220.299 228.909 218.871 235.394 218.65 242.672V243.848H279.734C279.519 235.907 278.084 229.022 275.46 223.206ZM226.539 283.538C219.826 279.789 214.559 274.586 210.76 267.928C206.953 261.278 205.057 253.805 205.057 245.529C205.057 237.247 206.953 229.781 210.76 223.117C214.559 216.466 219.856 211.264 226.622 207.514C233.392 203.765 240.973 201.887 249.364 201.887C257.752 201.887 265.251 203.765 271.851 207.514C278.457 211.264 283.623 216.436 287.372 223.036C291.122 229.642 293.055 237.077 293.17 245.358V247.204H218.821C219.041 254.81 220.604 261.443 223.518 267.088C226.426 272.74 230.396 277.102 235.435 280.176C240.467 283.26 246.177 284.796 252.555 284.796C260.376 284.796 267.204 282.78 273.027 278.758C278.844 274.726 282.813 269.351 284.937 262.643H288.471C286.227 270.812 281.588 277.267 274.537 282.027C267.489 286.781 259.036 289.16 249.192 289.16C240.81 289.16 233.247 287.287 226.539 283.538Z" fill="#FEFEFE"/>
<path d="M237.439 203.846C226.406 204.251 209.028 215.751 203.274 219.735C197.451 223.767 188.412 225.975 182.797 225.772C176.424 225.545 170.715 224.242 165.677 221.163C160.645 218.084 156.673 213.722 153.765 208.07C153.07 206.717 152.464 205.306 151.919 203.846H138.553C139.256 205.579 140.071 207.267 141.014 208.91C144.813 215.568 150.073 220.765 156.788 224.514C163.501 228.269 171.05 230.14 179.446 230.14C187.867 230.14 196.288 227.693 203.338 222.939C210.324 218.229 219.971 208.367 240.987 203.846H237.439Z" fill="#FEFEFE"/>
<path d="M189.094 442.983L173.87 438.255L174.823 435.169L186.773 438.881L189.484 430.167L178.692 426.818L179.647 423.732L190.439 427.083L193.24 418.067L180.905 414.23L181.866 411.151L197.475 416.001L189.094 442.983Z" fill="#FEFEFE"/>
<path d="M168.842 428.877C167.154 432.588 162.917 434.301 158.025 432.076C155.046 430.724 152.883 428.454 152.15 426.165L154.913 424.579C155.646 426.558 156.93 428.031 159.175 429.049C162.044 430.357 164.498 429.649 165.535 427.373C168.424 421.013 154.761 417.681 158.763 408.893C160.686 404.664 165.648 403.588 170.32 405.719C173.482 407.155 176.51 410.266 176.693 413.275L173.917 414.59C173.317 411.914 171.118 409.626 168.942 408.64C166.261 407.42 163.272 407.75 162.082 410.361C159.225 416.651 172.724 420.343 168.842 428.877Z" fill="#FEFEFE"/>
<path d="M145.36 425.693L125.602 413.465L127.303 410.721L135.718 415.931L148.899 394.619L151.82 396.427L138.639 417.734L147.061 422.944L145.36 425.693Z" fill="#FEFEFE"/>
<path d="M119.645 408.869L107.272 398.792L109.313 396.288L119.025 404.192L124.79 397.116L116.021 389.973L118.064 387.469L126.833 394.613L132.801 387.287L122.779 379.123L124.815 376.615L137.505 386.944L119.645 408.869Z" fill="#FEFEFE"/>
<path d="M102.66 394.761L86.6884 377.894L89.0342 375.668L95.8371 382.856L114.02 365.641L116.384 368.127L98.1955 385.354L105.004 392.543L102.66 394.761Z" fill="#FEFEFE"/>
<path d="M82.0191 371.696L79.9188 368.98L102.338 351.72L104.431 354.438L82.0191 371.696Z" fill="#FEFEFE"/>
<path d="M83.897 328.328C86.5386 328.948 89.4024 331.319 91.2232 334.321C95.63 341.566 93.7715 349.545 86.2483 354.117C79.3128 358.333 71.1013 357.183 66.5045 349.627C64.621 346.523 63.9508 343.475 64.3862 340.846L67.4149 340.851C67.2052 343.154 67.7124 345.398 69.2411 347.914C72.4346 353.161 78.63 354.495 84.3576 351.013C90.1246 347.509 91.6927 341.314 88.2966 335.719C86.8862 333.405 84.7572 331.685 82.4042 330.844L83.897 328.328Z" fill="#FEFEFE"/>
<path d="M64.1952 307.026L73.3673 304.162C73.1665 303.252 72.7041 301.496 72.2239 299.953C70.9783 295.981 68.6271 294.135 65.3081 295.173C62.4569 296.064 61.6146 298.777 62.835 302.671L64.1952 307.026ZM52.5876 310.655L61.2991 307.931L59.9533 303.619C59.0608 300.761 56.7472 298.902 53.8206 299.82C50.9999 300.698 50.0895 303.056 51.2095 306.641C51.6576 308.071 52.2525 309.702 52.5876 310.655ZM50.5697 314.879C50.0643 313.386 48.8816 310.037 48.1038 307.533C46.0949 301.091 48.326 297.942 52.0626 296.772C55.4515 295.711 58.0931 297.126 59.7508 299.447L59.826 299.422C59.3206 295.901 60.7812 292.992 64.4783 291.834C69.9533 290.128 73.6217 293.592 75.3654 299.182C76.1128 301.571 77.0608 304.872 77.4784 306.478L50.5697 314.879Z" fill="#FEFEFE"/>
<path d="M66.0985 271.942C65.1684 265.551 59.6683 261.977 53.3529 262.9C46.8404 263.85 42.844 269.205 43.7167 275.191C44.5966 281.268 49.9443 285.187 56.4569 284.239C62.8099 283.316 66.9694 277.934 66.0985 271.942ZM40.525 275.658C39.3422 267.547 44.3243 260.544 52.8332 259.304C61.1468 258.09 68.1146 263.368 69.2974 271.474C70.473 279.585 65.4963 286.596 56.982 287.836C48.869 289.019 41.7257 283.972 40.525 275.658Z" fill="#FEFEFE"/>
<path d="M52.7439 241.863L67.2851 231.709L67.2224 235.793L55.3353 244.164L66.95 252.876L66.8873 256.917L52.674 246.308L38.6202 256.019L38.683 251.985L50.1202 243.962L38.9428 235.711L39.0055 231.628L52.7439 241.863Z" fill="#FEFEFE"/>
<path d="M58.9381 203.714L68.2517 206.11C68.5546 205.23 69.0869 203.492 69.4901 201.923C70.5277 197.897 69.5026 195.09 66.1335 194.223C63.2446 193.477 61.094 195.348 60.0761 199.294L58.9381 203.714ZM47.1675 200.69L56.0062 202.961L57.1371 198.579C57.8772 195.683 56.8897 192.889 53.913 192.124C51.0618 191.384 49.0456 192.909 48.103 196.551C47.7356 197.999 47.3825 199.698 47.1675 200.69ZM43.2213 203.214C43.5761 201.683 44.3414 198.207 44.9991 195.671C46.6747 189.135 50.2338 187.635 54.0259 188.61C57.4722 189.495 58.9704 192.094 59.1532 194.932L59.2356 194.95C60.6585 191.689 63.4345 189.981 67.189 190.949C72.741 192.377 74.0295 197.259 72.5689 202.929C71.9435 205.35 71.0152 208.656 70.5206 210.237L43.2213 203.214Z" fill="#FEFEFE"/>
<path d="M69.4816 173.67L80.7038 178.26L79.401 181.439L68.1805 176.849L49.4225 180.003L50.9135 176.337L65.892 173.903L56.9332 161.632L58.3544 158.154L69.4816 173.67Z" fill="#FEFEFE"/>
<path d="M105.398 131.692C105.853 134.366 104.767 137.92 102.699 140.764C97.7172 147.624 89.6383 148.989 82.5183 143.812C75.9502 139.045 73.8391 131.022 79.0416 123.871C81.1724 120.925 83.7261 119.136 86.3193 118.523L87.4824 121.317C85.2746 122.013 83.4107 123.346 81.6778 125.73C78.0684 130.699 79.2315 136.932 84.6563 140.871C90.1061 144.835 96.434 143.893 100.278 138.602C101.864 136.414 102.637 133.778 102.504 131.282L105.398 131.692Z" fill="#FEFEFE"/>
<path d="M116.416 120.127C120.985 115.562 120.557 109.019 116.043 104.512C111.389 99.8579 104.706 99.8579 100.426 104.137C96.0823 108.476 96.1396 115.102 100.799 119.761C105.339 124.301 112.136 124.413 116.416 120.127ZM98.1378 101.849C103.935 96.0587 112.534 95.8562 118.615 101.939C124.552 107.881 124.494 116.618 118.704 122.415C112.907 128.207 104.308 128.41 98.2256 122.327C92.4281 116.53 92.2005 107.793 98.1378 101.849Z" fill="#FEFEFE"/>
<path d="M119.191 92.6143C116.775 89.3275 117.345 84.7952 121.669 81.6089C124.306 79.6662 127.347 78.8903 129.698 79.358L129.736 82.5444C127.642 82.2272 125.734 82.6322 123.748 84.0928C121.214 85.9584 120.632 88.4423 122.117 90.4584C126.259 96.0856 135.831 85.781 141.551 93.5498C144.302 97.2935 142.816 102.148 138.687 105.197C135.893 107.25 131.702 108.376 128.983 107.073L129.193 104.014C131.816 104.784 134.883 103.976 136.804 102.566C139.182 100.82 140.35 98.0462 138.65 95.738C134.553 90.1806 124.748 100.157 119.191 92.6143Z" fill="#FEFEFE"/>
<path d="M137.172 71.1568L140.258 69.569L156.348 77.5995L158.763 60.0476L161.67 58.5439L174.618 83.6927L171.564 85.2608L161.095 64.9292L158.624 82.0242L158.161 82.2644L142.762 74.5063L153.174 94.7321L150.12 96.3056L137.172 71.1568Z" fill="#FEFEFE"/>
<path d="M172.941 54.405L188.14 49.5054L189.133 52.5842L177.203 56.4283L180.002 65.1272L190.777 61.6505L191.769 64.7293L180.995 68.2007L183.898 77.2025L196.207 73.2383L197.199 76.3118L181.622 81.3387L172.941 54.405Z" fill="#FEFEFE"/>
<path d="M194.215 47.767L217.07 43.5752L217.658 46.749L207.921 48.5376L212.443 73.181L209.059 73.8082L204.54 49.1577L194.803 50.9462L194.215 47.767Z" fill="#FEFEFE"/>
<path d="M236.597 67.8733C243.057 67.6582 247.218 62.5883 247.003 56.203C246.788 49.6206 241.901 45.0561 235.844 45.2514C229.706 45.4539 225.217 50.341 225.437 56.9234C225.647 63.3392 230.539 68.0758 236.597 67.8733ZM235.736 42.022C243.937 41.7496 250.347 47.4772 250.638 56.0811C250.916 64.4772 244.903 70.832 236.704 71.1027C228.503 71.3751 222.088 65.6474 221.796 57.0435C221.525 48.8428 227.335 42.2998 235.736 42.022Z" fill="#FEFEFE"/>
<path d="M259.843 42.9463L263.25 43.3513L260.311 68.2169L274.144 69.8531L273.764 73.0592L256.524 71.0233L259.843 42.9463Z" fill="#FEFEFE"/>
<path d="M288.813 73.8101C295.058 75.4786 300.508 71.8317 302.152 65.6614C303.847 59.294 300.496 53.5091 294.641 51.9481C288.705 50.3675 283.003 53.7366 281.302 60.0968C279.644 66.3065 282.951 72.2492 288.813 73.8101ZM295.476 48.8245C303.397 50.9374 307.886 58.2833 305.661 66.6023C303.499 74.7134 295.906 79.0449 287.978 76.9338C280.049 74.8209 275.574 67.475 277.786 59.1614C279.904 51.2331 287.358 46.656 295.476 48.8245Z" fill="#FEFEFE"/>
<path d="M323.637 74.3375L333.494 78.9074L328.915 88.7641C325.591 89.9845 320.854 89.3393 317.668 87.8662C309.684 84.1547 307.078 76.6261 310.784 68.6332C314.204 61.2748 321.854 57.7408 329.51 61.2999C332.994 62.9128 335.093 64.9164 336.413 67.5275L333.904 69.393C333.032 67.3375 330.971 65.5364 328.517 64.3984C322.802 61.7496 316.955 63.9737 314.084 70.1709C311.195 76.3985 313.281 82.264 319.103 84.9647C321.519 86.083 324.788 86.4433 326.754 85.7551L329.2 80.4826L322.277 77.264L323.637 74.3375Z" fill="#FEFEFE"/>
<path d="M347.933 71.6226L350.854 73.4254L336.023 97.481L333.101 95.6781L347.933 71.6226Z" fill="#FEFEFE"/>
<path d="M354.927 84.2575C357.398 81.0084 361.912 80.2754 366.186 83.5299C368.79 85.5101 370.396 88.2019 370.611 90.5926L367.57 91.528C367.287 89.4295 366.351 87.7162 364.398 86.2234C361.88 84.3148 359.339 84.4599 357.823 86.4581C353.593 92.0209 366.179 98.2933 360.339 105.98C357.531 109.679 352.448 109.621 348.364 106.517C345.595 104.413 343.332 100.714 343.819 97.736L346.815 97.0657C346.815 99.8094 348.452 102.528 350.349 103.971C352.701 105.752 355.685 106.094 357.418 103.811C361.602 98.3112 349.256 91.7234 354.927 84.2575Z" fill="#FEFEFE"/>
<path d="M377.043 92.5063L393.62 108.761L391.362 111.067L384.294 104.144L366.769 122.024L364.317 119.621L381.848 101.736L374.78 94.8128L377.043 92.5063Z" fill="#FEFEFE"/>
<path d="M402.359 147.586L392.111 154.046L390.278 151.145L400.525 144.684L408.846 127.595L410.957 130.946L404.249 144.532L419.423 144.367L421.421 147.548L402.359 147.586Z" fill="#FEFEFE"/>
<path d="M418.904 181.487C410.99 184.959 405.698 181.64 403.372 176.348C400.646 170.133 402.48 163.95 410.06 160.624L424.892 154.118L426.27 157.262L412.033 163.507C406.413 165.973 404.205 170.202 406.336 175.045C408.202 179.299 412.273 180.647 418.153 178.068L432.612 171.726L433.996 174.867L418.904 181.487Z" fill="#FEFEFE"/>
<path d="M437.454 185.727L438.358 189.04L414.195 195.628L417.861 209.074L414.745 209.922L410.175 193.162L437.454 185.727Z" fill="#FEFEFE"/>
<path d="M443.278 210.161L443.854 213.543L415.979 218.254L415.411 214.871L443.278 210.161Z" fill="#FEFEFE"/>
<path d="M429.416 230.898L429.953 241.059L441.738 235.343L429.416 230.898ZM446.22 233.732L446.378 236.671L418.631 250.309L418.441 246.635L426.792 242.558L426.122 229.698L417.378 226.561L417.201 223.092L446.22 233.732Z" fill="#FEFEFE"/>
<path d="M437.696 274.088C441.712 274.834 444.391 278.538 443.413 283.823C442.818 287.042 441.137 289.69 439.089 290.956L436.888 288.66C438.633 287.459 439.745 285.854 440.194 283.432C440.77 280.334 439.499 278.121 437.033 277.665C430.155 276.389 430.218 290.463 420.721 288.705C416.144 287.857 413.913 283.287 414.848 278.235C415.481 274.814 417.77 271.13 420.646 270.232L422.594 272.603C420.141 273.836 418.452 276.522 418.022 278.868C417.479 281.769 418.522 284.595 421.341 285.113C428.137 286.379 428.472 272.38 437.696 274.088Z" fill="#FEFEFE"/>
<path d="M418.29 314.718L423.334 300.012L411.227 295.86L412.34 292.609L439.076 301.79L437.963 305.039L426.388 301.063L421.342 315.769L432.912 319.738L431.799 322.987L405.062 313.808L406.182 310.564L418.29 314.718Z" fill="#FEFEFE"/>
<path d="M426.717 333.843L425.211 336.934L399.765 324.529L401.271 321.445L426.717 333.843Z" fill="#FEFEFE"/>
<path d="M414.722 342.109C418.193 344.253 419.356 348.665 416.542 353.237C414.824 356.023 412.301 357.884 409.942 358.319L408.716 355.385C410.77 354.898 412.388 353.812 413.686 351.712C415.335 349.032 414.944 346.516 412.813 345.201C406.87 341.54 401.856 354.665 393.645 349.6C389.693 347.167 389.256 342.102 391.944 337.74C393.765 334.789 397.229 332.178 400.231 332.373L401.193 335.287C398.467 335.547 395.921 337.443 394.675 339.473C393.125 341.977 393.075 344.986 395.516 346.491C401.396 350.113 406.75 337.19 414.722 342.109Z" fill="#FEFEFE"/>
<path d="M382.079 373.008L392.061 361.083L382.242 352.865L384.456 350.236L406.128 368.386L403.921 371.017L394.54 363.164L384.556 375.087L393.939 382.94L391.732 385.576L370.059 367.418L372.266 364.789L382.079 373.008Z" fill="#FEFEFE"/>
<path d="M383.256 393.996L380.663 396.252L362.064 374.928L364.655 372.67L383.256 393.996ZM368.422 389.285L348.571 386.7L351.89 383.804L371.249 386.498L370.793 404.863L367.659 407.6L368.422 389.285Z" fill="#FEFEFE"/>
<path d="M360.32 412.611L357.501 414.577L341.329 391.367L344.148 389.401L360.32 412.611Z" fill="#FEFEFE"/>
<path d="M315.936 405.99L341.902 417.463L331.57 397.782L334.436 396.284L347.579 421.333L345.146 422.61L319.147 411.066L329.509 430.811L326.646 432.315L313.502 407.266L315.936 405.99Z" fill="#FEFEFE"/>
<path d="M305.749 422.673L296.07 425.834L304.656 435.734L305.749 422.673ZM307.38 439.648L304.58 440.566L284.19 417.306L287.681 416.168L293.801 423.179L306.046 419.177L306.812 409.915L310.111 408.84L307.38 439.648Z" fill="#FEFEFE"/>
<path d="M247.135 434.136C247.135 436.619 245.124 438.63 242.64 438.63C240.154 438.63 238.138 436.619 238.138 434.136C238.138 431.65 240.154 429.641 242.64 429.641C245.124 429.641 247.135 431.65 247.135 434.136Z" fill="#FEFEFE"/>
</svg>
